<?xml version="1.0" encoding="UTF-8"?>
<!DOCTYPE svg PUBLIC "-//W3C//DTD SVG 1.1//EN" "http://www.w3.org/Graphics/SVG/1.1/DTD/svg11.dtd">
<svg version="1.2" width="242.78mm" height="84.87mm" viewBox="2764 5864 24278 8487" preserveAspectRatio="xMidYMid" fill-rule="evenodd" stroke-width="28.222" stroke-linejoin="round" xmlns="http://www.w3.org/2000/svg" xmlns:ooo="http://xml.openoffice.org/svg/export" xmlns:xlink="http://www.w3.org/1999/xlink" xmlns:presentation="http://sun.com/xmlns/staroffice/presentation" xmlns:smil="http://www.w3.org/2001/SMIL20/" xmlns:anim="urn:oasis:names:tc:opendocument:xmlns:animation:1.0" xml:space="preserve">
 <defs class="EmbeddedBulletChars">
  <g id="bullet-char-template-57356" transform="scale(0.00048828125,-0.00048828125)">
   <path d="M 580,1141 L 1163,571 580,0 -4,571 580,1141 Z"/>
  </g>
  <g id="bullet-char-template-57354" transform="scale(0.00048828125,-0.00048828125)">
   <path d="M 8,1128 L 1137,1128 1137,0 8,0 8,1128 Z"/>
  </g>
  <g id="bullet-char-template-10146" transform="scale(0.00048828125,-0.00048828125)">
   <path d="M 174,0 L 602,739 174,1481 1456,739 174,0 Z M 1358,739 L 309,1346 659,739 1358,739 Z"/>
  </g>
  <g id="bullet-char-template-10132" transform="scale(0.00048828125,-0.00048828125)">
   <path d="M 2015,739 L 1276,0 717,0 1260,543 174,543 174,936 1260,936 717,1481 1274,1481 2015,739 Z"/>
  </g>
  <g id="bullet-char-template-10007" transform="scale(0.00048828125,-0.00048828125)">
   <path d="M 0,-2 C -7,14 -16,27 -25,37 L 356,567 C 262,823 215,952 215,954 215,979 228,992 255,992 264,992 276,990 289,987 310,991 331,999 354,1012 L 381,999 492,748 772,1049 836,1024 860,1049 C 881,1039 901,1025 922,1006 886,937 835,863 770,784 769,783 710,716 594,584 L 774,223 C 774,196 753,168 711,139 L 727,119 C 717,90 699,76 672,76 641,76 570,178 457,381 L 164,-76 C 142,-110 111,-127 72,-127 30,-127 9,-110 8,-76 1,-67 -2,-52 -2,-32 -2,-23 -1,-13 0,-2 Z"/>
  </g>
  <g id="bullet-char-template-10004" transform="scale(0.00048828125,-0.00048828125)">
   <path d="M 285,-33 C 182,-33 111,30 74,156 52,228 41,333 41,471 41,549 55,616 82,672 116,743 169,778 240,778 293,778 328,747 346,684 L 369,508 C 377,444 397,411 428,410 L 1163,1116 C 1174,1127 1196,1133 1229,1133 1271,1133 1292,1118 1292,1087 L 1292,965 C 1292,929 1282,901 1262,881 L 442,47 C 390,-6 338,-33 285,-33 Z"/>
  </g>
  <g id="bullet-char-template-9679" transform="scale(0.00048828125,-0.00048828125)">
   <path d="M 813,0 C 632,0 489,54 383,161 276,268 223,411 223,592 223,773 276,916 383,1023 489,1130 632,1184 813,1184 992,1184 1136,1130 1245,1023 1353,916 1407,772 1407,592 1407,412 1353,268 1245,161 1136,54 992,0 813,0 Z"/>
  </g>
  <g id="bullet-char-template-8226" transform="scale(0.00048828125,-0.00048828125)">
   <path d="M 346,457 C 273,457 209,483 155,535 101,586 74,649 74,723 74,796 101,859 155,911 209,963 273,989 346,989 419,989 480,963 531,910 582,859 608,796 608,723 608,648 583,586 532,535 482,483 420,457 346,457 Z"/>
  </g>
  <g id="bullet-char-template-8211" transform="scale(0.00048828125,-0.00048828125)">
   <path d="M -4,459 L 1135,459 1135,606 -4,606 -4,459 Z"/>
  </g>
  <g id="bullet-char-template-61548" transform="scale(0.00048828125,-0.00048828125)">
   <path d="M 173,740 C 173,903 231,1043 346,1159 462,1274 601,1332 765,1332 928,1332 1067,1274 1183,1159 1299,1043 1357,903 1357,740 1357,577 1299,437 1183,322 1067,206 928,148 765,148 601,148 462,206 346,322 231,437 173,577 173,740 Z"/>
  </g>
 </defs>
 <g class="Page">
  <g class="Group">
   <g class="com.sun.star.drawing.ClosedBezierShape">
    <g id="id3">
     <rect class="BoundingBox" stroke="none" fill="none" x="2764" y="10010" width="3612" height="4341"/>
     <path fill="rgb(3,152,158)" stroke="none" d="M 5928,13302 C 5971,13302 6009,13318 6040,13352 L 6351,13689 C 6179,13903 5967,14066 5715,14180 5464,14293 5162,14350 4810,14350 4495,14350 4212,14296 3960,14189 3709,14081 3494,13931 3316,13739 3138,13547 3001,13318 2906,13052 2812,12786 2764,12495 2764,12180 2764,11861 2817,11569 2923,11304 3028,11038 3177,10810 3369,10618 3561,10426 3790,10277 4057,10170 4324,10064 4619,10010 4942,10010 5257,10010 5533,10061 5768,10161 6004,10262 6206,10396 6374,10562 L 6110,10929 C 6095,10953 6075,10973 6050,10991 6026,11008 5992,11017 5949,11017 5904,11017 5858,11000 5811,10964 5764,10929 5704,10891 5632,10850 5559,10809 5468,10771 5357,10735 5247,10700 5106,10683 4936,10683 4737,10683 4553,10717 4386,10787 4219,10856 4075,10956 3954,11085 3834,11214 3740,11371 3673,11556 3605,11741 3571,11949 3571,12180 3571,12419 3605,12631 3673,12817 3740,13003 3832,13160 3947,13287 4062,13414 4198,13512 4355,13579 4512,13647 4680,13681 4860,13681 4967,13681 5065,13675 5152,13663 5239,13651 5319,13633 5393,13607 5466,13582 5535,13549 5601,13509 5667,13469 5732,13419 5796,13361 5816,13343 5836,13329 5858,13318 5879,13307 5903,13302 5928,13302 Z"/>
    </g>
   </g>
   <g class="com.sun.star.drawing.PolyPolygonShape">
    <g id="id4">
     <rect class="BoundingBox" stroke="none" fill="none" x="6943" y="10057" width="3583" height="4248"/>
     <path fill="rgb(3,152,158)" stroke="none" d="M 10524,14303 L 9729,14303 9729,12447 7739,12447 7739,14303 6943,14303 6943,10058 7739,10058 7739,11884 9729,11884 9729,10058 10524,10058 10524,14303 Z"/>
    </g>
   </g>
   <g class="com.sun.star.drawing.ClosedBezierShape">
    <g id="id5">
     <rect class="BoundingBox" stroke="none" fill="none" x="10971" y="10057" width="4143" height="4248"/>
     <path fill="rgb(3,152,158)" stroke="none" d="M 15113,14303 L 14502,14303 C 14434,14303 14377,14286 14333,14252 14289,14218 14258,14175 14238,14124 L 13921,13258 12163,13258 11846,14124 C 11830,14169 11799,14210 11753,14247 11707,14285 11651,14303 11585,14303 L 10971,14303 12638,10058 13446,10058 15113,14303 Z M 12365,12700 L 13719,12700 13202,11288 C 13178,11225 13153,11151 13124,11066 13096,10981 13068,10889 13041,10789 13013,10889 12986,10982 12960,11068 12933,11154 12907,11229 12882,11294 L 12365,12700 Z"/>
    </g>
   </g>
   <g class="com.sun.star.drawing.ClosedBezierShape">
    <g id="id6">
     <rect class="BoundingBox" stroke="none" fill="none" x="15550" y="10057" width="4604" height="4248"/>
     <path fill="rgb(0,0,0)" stroke="none" d="M 17681,12542 C 17715,12604 17746,12669 17774,12737 17802,12804 17830,12872 17858,12941 17885,12871 17913,12801 17943,12733 17972,12664 18003,12598 18037,12536 L 19293,10184 C 19309,10155 19325,10131 19341,10114 19358,10096 19377,10083 19397,10076 19418,10068 19441,10063 19466,10061 19491,10059 19522,10058 19557,10058 L 20153,10058 20153,14303 19457,14303 19457,11561 C 19457,11510 19459,11454 19462,11394 19465,11333 19469,11271 19475,11209 L 18192,13616 C 18163,13671 18125,13714 18078,13744 18031,13774 17976,13789 17913,13789 L 17805,13789 C 17742,13789 17687,13774 17640,13744 17593,13714 17555,13671 17526,13616 L 16226,11200 C 16233,11265 16239,11328 16242,11389 16245,11451 16246,11508 16246,11561 L 16246,14303 15550,14303 15550,10058 16146,10058 C 16182,10058 16212,10059 16237,10061 16263,10063 16286,10068 16306,10076 16327,10083 16346,10096 16364,10114 16381,10131 16398,10155 16413,10184 L 17681,12542 Z"/>
    </g>
   </g>
   <g class="com.sun.star.drawing.PolyPolygonShape">
    <g id="id7">
     <rect class="BoundingBox" stroke="none" fill="none" x="21010" y="10057" width="2679" height="4248"/>
     <path fill="rgb(0,0,0)" stroke="none" d="M 23687,10058 L 23687,10686 21806,10686 21806,11863 23288,11863 23288,12471 21806,12471 21806,13672 23687,13672 23687,14303 21010,14303 21010,10058 23687,10058 Z"/>
    </g>
   </g>
   <g class="com.sun.star.drawing.PolyPolygonShape">
    <g id="id8">
     <rect class="BoundingBox" stroke="none" fill="none" x="24465" y="10057" width="795" height="4248"/>
     <path fill="rgb(0,0,0)" stroke="none" d="M 25258,14303 L 24466,14303 24466,10058 25258,10058 25258,14303 Z"/>
    </g>
   </g>
  </g>
  <g class="com.sun.star.drawing.ClosedBezierShape">
   <g id="id9">
    <rect class="BoundingBox" stroke="none" fill="none" x="22949" y="5864" width="4093" height="3943"/>
    <path fill="rgb(0,0,0)" stroke="none" d="M 27040,7835 C 27040,8181 26945,8521 26766,8820 26586,9120 26328,9369 26017,9542 25706,9714 25354,9805 24995,9805 24636,9805 24283,9714 23972,9542 23661,9369 23403,9120 23224,8820 23044,8521 22950,8181 22950,7835 22950,7489 23044,7150 23224,6850 23403,6551 23661,6302 23972,6129 24283,5956 24636,5865 24995,5865 25354,5865 25706,5956 26017,6129 26328,6302 26586,6551 26766,6850 26945,7150 27040,7489 27040,7835 L 27040,7835 Z"/>
    <path fill="none" stroke="rgb(52,101,164)" d="M 27040,7835 C 27040,8181 26945,8521 26766,8820 26586,9120 26328,9369 26017,9542 25706,9714 25354,9805 24995,9805 24636,9805 24283,9714 23972,9542 23661,9369 23403,9120 23224,8820 23044,8521 22950,8181 22950,7835 22950,7489 23044,7150 23224,6850 23403,6551 23661,6302 23972,6129 24283,5956 24636,5865 24995,5865 25354,5865 25706,5956 26017,6129 26328,6302 26586,6551 26766,6850 26945,7150 27040,7489 27040,7835 L 27040,7835 Z"/>
   </g>
  </g>
  <g class="Group">
   <g class="Group">
    <g class="com.sun.star.drawing.ClosedBezierShape">
     <g id="id10">
      <rect class="BoundingBox" stroke="none" fill="none" x="24577" y="6966" width="763" height="729"/>
      <path fill="rgb(255,255,255)" stroke="none" d="M 25339,7330 C 25339,7394 25321,7457 25288,7512 25254,7567 25206,7613 25148,7645 25090,7677 25025,7694 24958,7694 24891,7694 24825,7677 24768,7645 24710,7613 24662,7567 24628,7512 24595,7457 24577,7394 24577,7330 24577,7266 24595,7204 24628,7148 24662,7093 24710,7047 24768,7015 24825,6983 24891,6966 24958,6966 25025,6966 25090,6983 25148,7015 25206,7047 25254,7093 25288,7148 25321,7204 25339,7266 25339,7330 L 25339,7330 Z"/>
     </g>
    </g>
    <g class="com.sun.star.drawing.ClosedBezierShape">
     <g id="id11">
      <rect class="BoundingBox" stroke="none" fill="none" x="24387" y="7728" width="1143" height="729"/>
      <path fill="rgb(255,255,255)" stroke="none" d="M 25528,8092 C 25528,8156 25502,8219 25452,8274 25402,8329 25330,8375 25243,8407 25156,8439 25058,8456 24958,8456 24858,8456 24759,8439 24673,8407 24586,8375 24514,8329 24464,8274 24414,8219 24388,8156 24388,8092 24388,8028 24414,7966 24464,7910 24514,7855 24586,7809 24673,7777 24759,7745 24858,7728 24958,7728 25058,7728 25156,7745 25243,7777 25330,7809 25402,7855 25452,7910 25502,7966 25528,8028 25528,8092 L 25528,8092 Z"/>
     </g>
    </g>
   </g>
   <g class="Group">
    <g class="com.sun.star.drawing.ClosedBezierShape">
     <g id="id12">
      <rect class="BoundingBox" stroke="none" fill="none" x="25803" y="7423" width="546" height="504"/>
      <path fill="rgb(255,255,255)" stroke="none" d="M 26347,7674 C 26347,7718 26335,7762 26311,7800 26287,7838 26253,7870 26211,7892 26170,7914 26123,7925 26075,7925 26028,7925 25981,7914 25940,7892 25898,7870 25864,7838 25840,7800 25816,7762 25804,7718 25804,7674 25804,7630 25816,7587 25840,7549 25864,7511 25898,7479 25940,7457 25981,7435 26028,7424 26075,7424 26123,7424 26170,7435 26211,7457 26253,7479 26287,7511 26311,7549 26335,7587 26347,7630 26347,7674 Z"/>
     </g>
    </g>
    <g class="com.sun.star.drawing.ClosedBezierShape">
     <g id="id13">
      <rect class="BoundingBox" stroke="none" fill="none" x="25671" y="7952" width="809" height="504"/>
      <path fill="rgb(255,255,255)" stroke="none" d="M 26479,8204 C 26479,8248 26460,8291 26424,8329 26389,8367 26338,8399 26277,8421 26215,8443 26146,8455 26075,8455 26004,8455 25935,8443 25873,8421 25812,8399 25761,8367 25726,8329 25690,8291 25672,8248 25672,8204 25672,8159 25690,8116 25726,8078 25761,8040 25812,8008 25873,7986 25935,7964 26004,7952 26075,7952 26146,7952 26215,7964 26277,7986 26338,8008 26389,8040 26424,8078 26460,8116 26479,8159 26479,8204 Z"/>
     </g>
    </g>
   </g>
   <g class="Group">
    <g class="com.sun.star.drawing.ClosedBezierShape">
     <g id="id14">
      <rect class="BoundingBox" stroke="none" fill="none" x="23568" y="7423" width="546" height="504"/>
      <path fill="rgb(255,255,255)" stroke="none" d="M 24112,7674 C 24112,7718 24100,7762 24076,7800 24052,7838 24018,7870 23976,7892 23935,7914 23888,7925 23840,7925 23793,7925 23746,7914 23705,7892 23663,7870 23629,7838 23605,7800 23581,7762 23569,7718 23569,7674 23569,7630 23581,7587 23605,7549 23629,7511 23663,7479 23705,7457 23746,7435 23793,7424 23840,7424 23888,7424 23935,7435 23976,7457 24018,7479 24052,7511 24076,7549 24100,7587 24112,7630 24112,7674 Z"/>
     </g>
    </g>
    <g class="com.sun.star.drawing.ClosedBezierShape">
     <g id="id15">
      <rect class="BoundingBox" stroke="none" fill="none" x="23435" y="7952" width="809" height="504"/>
      <path fill="rgb(255,255,255)" stroke="none" d="M 24243,8204 C 24243,8248 24224,8291 24189,8329 24153,8367 24102,8399 24041,8421 23980,8443 23910,8455 23839,8455 23768,8455 23699,8443 23637,8421 23576,8399 23525,8367 23490,8329 23454,8291 23436,8248 23436,8204 23436,8159 23454,8116 23490,8078 23525,8040 23576,8008 23637,7986 23699,7964 23768,7952 23839,7952 23910,7952 23980,7964 24041,7986 24102,8008 24153,8040 24189,8078 24224,8116 24243,8159 24243,8204 Z"/>
     </g>
    </g>
   </g>
  </g>
  <g class="com.sun.star.drawing.ClosedBezierShape">
   <g id="id16">
    <rect class="BoundingBox" stroke="none" fill="none" x="23235" y="6166" width="3491" height="3365"/>
    <path fill="rgb(255,255,255)" fill-opacity="0.502" stroke="rgb(255,255,255)" stroke-opacity="0.502" d="M 26724,7848 C 26724,8143 26644,8433 26491,8688 26337,8944 26117,9156 25852,9303 25587,9451 25286,9529 24980,9529 24674,9529 24373,9451 24108,9303 23843,9156 23622,8944 23469,8688 23316,8433 23236,8143 23236,7848 23236,7553 23316,7263 23469,7008 23622,6752 23843,6540 24108,6393 24373,6245 24674,6167 24980,6167 25286,6167 25587,6245 25852,6393 26117,6540 26337,6752 26491,7008 26644,7263 26724,7553 26724,7848 L 26724,7848 Z"/>
    <path fill="none" stroke="rgb(52,101,164)" d="M 26724,7848 C 26724,8143 26644,8433 26491,8688 26337,8944 26117,9156 25852,9303 25587,9451 25286,9529 24980,9529 24674,9529 24373,9451 24108,9303 23843,9156 23622,8944 23469,8688 23316,8433 23236,8143 23236,7848 23236,7553 23316,7263 23469,7008 23622,6752 23843,6540 24108,6393 24373,6245 24674,6167 24980,6167 25286,6167 25587,6245 25852,6393 26117,6540 26337,6752 26491,7008 26644,7263 26724,7553 26724,7848 Z"/>
   </g>
  </g>
  <g class="com.sun.star.drawing.PolyPolygonShape">
   <g id="id17">
    <rect class="BoundingBox" stroke="none" fill="none" x="17833" y="7549" width="869" height="370"/>
    <path fill="rgb(0,0,0)" stroke="none" d="M 17833,7917 L 17833,7734 17833,7550 18700,7550 18700,7734 18700,7917 17833,7917 Z"/>
   </g>
  </g>
  <g class="com.sun.star.drawing.PolyPolygonShape">
   <g id="id18">
    <rect class="BoundingBox" stroke="none" fill="none" x="17249" y="8691" width="1135" height="911"/>
    <path fill="rgb(0,0,0)" stroke="none" d="M 17250,9000 L 17349,8846 17448,8691 18382,9291 18283,9446 18184,9600 17250,9000 Z"/>
   </g>
  </g>
  <g class="com.sun.star.drawing.PolyPolygonShape">
   <g id="id19">
    <rect class="BoundingBox" stroke="none" fill="none" x="17267" y="5948" width="1135" height="911"/>
    <path fill="rgb(0,0,0)" stroke="none" d="M 17268,6549 L 17367,6703 17466,6858 18400,6258 18301,6103 18202,5949 17268,6549 Z"/>
   </g>
  </g>
 </g>
</svg>